<?xml version="1.0" encoding="UTF-8"?>
<svg xmlns="http://www.w3.org/2000/svg" xmlns:xlink="http://www.w3.org/1999/xlink" width="32px" height="32px" viewBox="0 0 32 32" version="1.1">
<g id="surface1">
<path style=" stroke:none;fill-rule:nonzero;fill:rgb(0%,0%,0%);fill-opacity:1;" d="M 6.738281 20.210938 C 6.738281 22.070312 5.230469 23.578125 3.371094 23.578125 C 1.507812 23.578125 0 22.070312 0 20.210938 C 0 18.351562 1.507812 16.84375 3.367188 16.84375 L 6.734375 16.84375 L 6.734375 20.210938 Z M 6.738281 20.210938 "/>
<path style=" stroke:none;fill-rule:nonzero;fill:rgb(0%,0%,0%);fill-opacity:1;" d="M 8.421875 20.210938 C 8.421875 18.351562 9.929688 16.84375 11.789062 16.84375 C 13.648438 16.84375 15.15625 18.351562 15.15625 20.210938 L 15.15625 28.632812 C 15.15625 30.492188 13.648438 32 11.789062 32 C 9.929688 32 8.421875 30.492188 8.421875 28.632812 Z M 8.421875 20.210938 "/>
<path style=" stroke:none;fill-rule:nonzero;fill:rgb(0%,0%,0%);fill-opacity:1;" d="M 11.789062 6.738281 C 9.929688 6.738281 8.421875 5.230469 8.421875 3.371094 C 8.421875 1.507812 9.929688 0 11.789062 0 C 13.648438 0 15.15625 1.507812 15.15625 3.367188 L 15.15625 6.734375 L 11.789062 6.734375 Z M 11.789062 6.738281 "/>
<path style=" stroke:none;fill-rule:nonzero;fill:rgb(0%,0%,0%);fill-opacity:1;" d="M 11.789062 8.421875 C 13.648438 8.421875 15.15625 9.929688 15.15625 11.789062 C 15.15625 13.648438 13.648438 15.15625 11.789062 15.15625 L 3.367188 15.15625 C 1.507812 15.15625 0 13.648438 0 11.789062 C 0 9.929688 1.507812 8.421875 3.367188 8.421875 Z M 11.789062 8.421875 "/>
<path style=" stroke:none;fill-rule:nonzero;fill:rgb(0%,0%,0%);fill-opacity:1;" d="M 25.261719 11.789062 C 25.261719 9.929688 26.769531 8.421875 28.628906 8.421875 C 30.492188 8.421875 32 9.929688 32 11.789062 C 32 13.648438 30.492188 15.15625 28.632812 15.15625 L 25.265625 15.15625 L 25.265625 11.789062 Z M 25.261719 11.789062 "/>
<path style=" stroke:none;fill-rule:nonzero;fill:rgb(0%,0%,0%);fill-opacity:1;" d="M 23.578125 11.789062 C 23.578125 13.648438 22.070312 15.15625 20.210938 15.15625 C 18.351562 15.15625 16.84375 13.648438 16.84375 11.789062 L 16.84375 3.367188 C 16.84375 1.507812 18.351562 0 20.210938 0 C 22.070312 0 23.578125 1.507812 23.578125 3.367188 Z M 23.578125 11.789062 "/>
<path style=" stroke:none;fill-rule:nonzero;fill:rgb(0%,0%,0%);fill-opacity:1;" d="M 20.210938 25.261719 C 22.070312 25.261719 23.578125 26.769531 23.578125 28.628906 C 23.578125 30.492188 22.070312 32 20.210938 32 C 18.351562 32 16.84375 30.492188 16.84375 28.628906 L 16.84375 25.261719 Z M 20.210938 25.261719 "/>
<path style=" stroke:none;fill-rule:nonzero;fill:rgb(0%,0%,0%);fill-opacity:1;" d="M 20.210938 23.578125 C 18.351562 23.578125 16.84375 22.070312 16.84375 20.210938 C 16.84375 18.351562 18.351562 16.84375 20.210938 16.84375 L 28.632812 16.84375 C 30.492188 16.84375 32 18.351562 32 20.210938 C 32 22.070312 30.492188 23.578125 28.632812 23.578125 Z M 20.210938 23.578125 "/>
</g>
</svg>
